<mxfile host="app.diagrams.net" agent="Mozilla/5.0 (Windows NT 10.0; Win64; x64) AppleWebKit/537.36 (KHTML, like Gecko) Chrome/131.0.0.0 Safari/537.36" version="25.0.3">
  <diagram id="QOX0zmf6lKhEyTPHNfGF" name="Page-1">
    <mxGraphModel dx="1400" dy="1807" grid="1" gridSize="10" guides="1" tooltips="1" connect="1" arrows="1" fold="1" page="1" pageScale="1" pageWidth="850" pageHeight="1100" math="0" shadow="0">
      <root>
        <mxCell id="0" />
        <mxCell id="1" parent="0" />
        <mxCell id="HKuxVmC4cj7fEWc9r8pq-22" value="" style="rounded=0;whiteSpace=wrap;html=1;dashed=1;dashPattern=8 8;" vertex="1" parent="1">
          <mxGeometry x="830" y="-310" width="1010" height="550" as="geometry" />
        </mxCell>
        <mxCell id="H4racg3nBvEyxOAhPjej-491" value="" style="rounded=0;whiteSpace=wrap;html=1;dashed=1;dashPattern=8 8;" parent="1" vertex="1">
          <mxGeometry x="60" y="320" width="1450" height="840" as="geometry" />
        </mxCell>
        <mxCell id="H4racg3nBvEyxOAhPjej-194" value="SortAscending9(Row 0)" style="rounded=0;whiteSpace=wrap;html=1;" parent="1" vertex="1">
          <mxGeometry x="130" y="350" width="130" height="360" as="geometry" />
        </mxCell>
        <mxCell id="H4racg3nBvEyxOAhPjej-195" value="" style="endArrow=classic;html=1;rounded=0;" parent="1" edge="1">
          <mxGeometry width="50" height="50" relative="1" as="geometry">
            <mxPoint x="50" y="370" as="sourcePoint" />
            <mxPoint x="130" y="370" as="targetPoint" />
          </mxGeometry>
        </mxCell>
        <mxCell id="H4racg3nBvEyxOAhPjej-196" value="" style="endArrow=classic;html=1;rounded=0;" parent="1" edge="1">
          <mxGeometry width="50" height="50" relative="1" as="geometry">
            <mxPoint x="50" y="410" as="sourcePoint" />
            <mxPoint x="130" y="410" as="targetPoint" />
          </mxGeometry>
        </mxCell>
        <mxCell id="H4racg3nBvEyxOAhPjej-197" value="" style="endArrow=classic;html=1;rounded=0;" parent="1" edge="1">
          <mxGeometry width="50" height="50" relative="1" as="geometry">
            <mxPoint x="50" y="450" as="sourcePoint" />
            <mxPoint x="130" y="450" as="targetPoint" />
          </mxGeometry>
        </mxCell>
        <mxCell id="H4racg3nBvEyxOAhPjej-198" value="" style="endArrow=classic;html=1;rounded=0;" parent="1" edge="1">
          <mxGeometry width="50" height="50" relative="1" as="geometry">
            <mxPoint x="50" y="490" as="sourcePoint" />
            <mxPoint x="130" y="490" as="targetPoint" />
          </mxGeometry>
        </mxCell>
        <mxCell id="H4racg3nBvEyxOAhPjej-199" value="" style="endArrow=classic;html=1;rounded=0;" parent="1" edge="1">
          <mxGeometry width="50" height="50" relative="1" as="geometry">
            <mxPoint x="50" y="530" as="sourcePoint" />
            <mxPoint x="130" y="530" as="targetPoint" />
          </mxGeometry>
        </mxCell>
        <mxCell id="H4racg3nBvEyxOAhPjej-200" value="" style="endArrow=classic;html=1;rounded=0;" parent="1" edge="1">
          <mxGeometry width="50" height="50" relative="1" as="geometry">
            <mxPoint x="50" y="570" as="sourcePoint" />
            <mxPoint x="130" y="570" as="targetPoint" />
          </mxGeometry>
        </mxCell>
        <mxCell id="H4racg3nBvEyxOAhPjej-201" value="" style="endArrow=classic;html=1;rounded=0;" parent="1" edge="1">
          <mxGeometry width="50" height="50" relative="1" as="geometry">
            <mxPoint x="50" y="610" as="sourcePoint" />
            <mxPoint x="130" y="610" as="targetPoint" />
          </mxGeometry>
        </mxCell>
        <mxCell id="H4racg3nBvEyxOAhPjej-202" value="S1" style="text;html=1;align=center;verticalAlign=middle;whiteSpace=wrap;rounded=0;" parent="1" vertex="1">
          <mxGeometry y="340" width="60" height="30" as="geometry" />
        </mxCell>
        <mxCell id="H4racg3nBvEyxOAhPjej-203" value="S2" style="text;html=1;align=center;verticalAlign=middle;whiteSpace=wrap;rounded=0;" parent="1" vertex="1">
          <mxGeometry y="380" width="60" height="30" as="geometry" />
        </mxCell>
        <mxCell id="H4racg3nBvEyxOAhPjej-204" value="S3" style="text;html=1;align=center;verticalAlign=middle;whiteSpace=wrap;rounded=0;" parent="1" vertex="1">
          <mxGeometry y="420" width="60" height="30" as="geometry" />
        </mxCell>
        <mxCell id="H4racg3nBvEyxOAhPjej-205" value="S4" style="text;html=1;align=center;verticalAlign=middle;whiteSpace=wrap;rounded=0;" parent="1" vertex="1">
          <mxGeometry y="460" width="60" height="30" as="geometry" />
        </mxCell>
        <mxCell id="H4racg3nBvEyxOAhPjej-206" value="S5" style="text;html=1;align=center;verticalAlign=middle;whiteSpace=wrap;rounded=0;" parent="1" vertex="1">
          <mxGeometry y="500" width="60" height="30" as="geometry" />
        </mxCell>
        <mxCell id="H4racg3nBvEyxOAhPjej-207" value="S6" style="text;html=1;align=center;verticalAlign=middle;whiteSpace=wrap;rounded=0;" parent="1" vertex="1">
          <mxGeometry y="540" width="60" height="30" as="geometry" />
        </mxCell>
        <mxCell id="H4racg3nBvEyxOAhPjej-208" value="S7" style="text;html=1;align=center;verticalAlign=middle;whiteSpace=wrap;rounded=0;" parent="1" vertex="1">
          <mxGeometry y="580" width="60" height="30" as="geometry" />
        </mxCell>
        <mxCell id="H4racg3nBvEyxOAhPjej-224" value="......" style="text;html=1;align=center;verticalAlign=middle;whiteSpace=wrap;rounded=0;direction=north;rotation=90;" parent="1" vertex="1">
          <mxGeometry x="160" y="716.3" width="50" height="60" as="geometry" />
        </mxCell>
        <mxCell id="H4racg3nBvEyxOAhPjej-225" value="SortAscending9(Col 0)" style="rounded=0;whiteSpace=wrap;html=1;" parent="1" vertex="1">
          <mxGeometry x="435" y="350" width="130" height="360" as="geometry" />
        </mxCell>
        <mxCell id="H4racg3nBvEyxOAhPjej-226" value="" style="endArrow=classic;html=1;rounded=0;exitX=1.004;exitY=0.027;exitDx=0;exitDy=0;exitPerimeter=0;entryX=-0.007;entryY=0.027;entryDx=0;entryDy=0;entryPerimeter=0;" parent="1" source="H4racg3nBvEyxOAhPjej-194" target="H4racg3nBvEyxOAhPjej-225" edge="1">
          <mxGeometry width="50" height="50" relative="1" as="geometry">
            <mxPoint x="270" y="420" as="sourcePoint" />
            <mxPoint x="430" y="370" as="targetPoint" />
          </mxGeometry>
        </mxCell>
        <mxCell id="H4racg3nBvEyxOAhPjej-227" value="SortAscending9(Col 8)" style="rounded=0;whiteSpace=wrap;html=1;" parent="1" vertex="1">
          <mxGeometry x="435" y="766.3" width="130" height="360" as="geometry" />
        </mxCell>
        <mxCell id="H4racg3nBvEyxOAhPjej-231" value="" style="endArrow=classic;html=1;rounded=0;exitX=0.995;exitY=0.149;exitDx=0;exitDy=0;exitPerimeter=0;" parent="1" edge="1">
          <mxGeometry width="50" height="50" relative="1" as="geometry">
            <mxPoint x="259.35000000000014" y="800.23" as="sourcePoint" />
            <mxPoint x="430" y="610" as="targetPoint" />
            <Array as="points">
              <mxPoint x="320" y="800" />
              <mxPoint x="360" y="610" />
            </Array>
          </mxGeometry>
        </mxCell>
        <mxCell id="H4racg3nBvEyxOAhPjej-232" value="......" style="text;html=1;align=center;verticalAlign=middle;whiteSpace=wrap;rounded=0;direction=north;rotation=90;" parent="1" vertex="1">
          <mxGeometry x="485" y="706.3" width="50" height="60" as="geometry" />
        </mxCell>
        <mxCell id="H4racg3nBvEyxOAhPjej-233" value="" style="endArrow=classic;html=1;rounded=0;entryX=0.005;entryY=0.123;entryDx=0;entryDy=0;entryPerimeter=0;" parent="1" target="H4racg3nBvEyxOAhPjej-227" edge="1">
          <mxGeometry width="50" height="50" relative="1" as="geometry">
            <mxPoint x="261" y="610" as="sourcePoint" />
            <mxPoint x="320" y="610" as="targetPoint" />
            <Array as="points">
              <mxPoint x="280" y="610" />
              <mxPoint x="330" y="610" />
              <mxPoint x="370" y="810" />
            </Array>
          </mxGeometry>
        </mxCell>
        <mxCell id="H4racg3nBvEyxOAhPjej-277" value="Median_7x7_calc" style="rounded=0;whiteSpace=wrap;html=1;" parent="1" vertex="1">
          <mxGeometry x="1190" y="560" width="210" height="220" as="geometry" />
        </mxCell>
        <mxCell id="H4racg3nBvEyxOAhPjej-278" value="" style="endArrow=classic;html=1;rounded=0;exitX=0.997;exitY=0.587;exitDx=0;exitDy=0;exitPerimeter=0;" parent="1" source="H4racg3nBvEyxOAhPjej-225" edge="1">
          <mxGeometry width="50" height="50" relative="1" as="geometry">
            <mxPoint x="570" y="540" as="sourcePoint" />
            <mxPoint x="720" y="560" as="targetPoint" />
          </mxGeometry>
        </mxCell>
        <mxCell id="H4racg3nBvEyxOAhPjej-279" value="" style="endArrow=classic;html=1;rounded=0;exitX=0.987;exitY=0.317;exitDx=0;exitDy=0;exitPerimeter=0;" parent="1" source="H4racg3nBvEyxOAhPjej-227" edge="1">
          <mxGeometry width="50" height="50" relative="1" as="geometry">
            <mxPoint x="565" y="727.86" as="sourcePoint" />
            <mxPoint x="720" y="880" as="targetPoint" />
          </mxGeometry>
        </mxCell>
        <mxCell id="H4racg3nBvEyxOAhPjej-280" value="" style="endArrow=classic;html=1;rounded=0;exitX=1.002;exitY=0.547;exitDx=0;exitDy=0;exitPerimeter=0;" parent="1" source="H4racg3nBvEyxOAhPjej-277" edge="1">
          <mxGeometry width="50" height="50" relative="1" as="geometry">
            <mxPoint x="928" y="655" as="sourcePoint" />
            <mxPoint x="1530" y="680" as="targetPoint" />
          </mxGeometry>
        </mxCell>
        <mxCell id="H4racg3nBvEyxOAhPjej-281" value="median_o" style="text;html=1;align=center;verticalAlign=middle;whiteSpace=wrap;rounded=0;" parent="1" vertex="1">
          <mxGeometry x="1500" y="630" width="60" height="30" as="geometry" />
        </mxCell>
        <mxCell id="H4racg3nBvEyxOAhPjej-282" value="SortAscending9" style="rounded=0;whiteSpace=wrap;html=1;" parent="1" vertex="1">
          <mxGeometry x="230" y="-70" width="120" height="350" as="geometry" />
        </mxCell>
        <mxCell id="H4racg3nBvEyxOAhPjej-283" value="" style="endArrow=classic;html=1;rounded=0;" parent="1" edge="1">
          <mxGeometry width="50" height="50" relative="1" as="geometry">
            <mxPoint x="150" y="-50" as="sourcePoint" />
            <mxPoint x="230" y="-50" as="targetPoint" />
          </mxGeometry>
        </mxCell>
        <mxCell id="H4racg3nBvEyxOAhPjej-284" value="" style="endArrow=classic;html=1;rounded=0;" parent="1" edge="1">
          <mxGeometry width="50" height="50" relative="1" as="geometry">
            <mxPoint x="150" y="-10" as="sourcePoint" />
            <mxPoint x="230" y="-10" as="targetPoint" />
          </mxGeometry>
        </mxCell>
        <mxCell id="H4racg3nBvEyxOAhPjej-285" value="" style="endArrow=classic;html=1;rounded=0;" parent="1" edge="1">
          <mxGeometry width="50" height="50" relative="1" as="geometry">
            <mxPoint x="150" y="30" as="sourcePoint" />
            <mxPoint x="230" y="30" as="targetPoint" />
          </mxGeometry>
        </mxCell>
        <mxCell id="H4racg3nBvEyxOAhPjej-286" value="" style="endArrow=classic;html=1;rounded=0;" parent="1" edge="1">
          <mxGeometry width="50" height="50" relative="1" as="geometry">
            <mxPoint x="150" y="70" as="sourcePoint" />
            <mxPoint x="230" y="70" as="targetPoint" />
          </mxGeometry>
        </mxCell>
        <mxCell id="H4racg3nBvEyxOAhPjej-287" value="" style="endArrow=classic;html=1;rounded=0;" parent="1" edge="1">
          <mxGeometry width="50" height="50" relative="1" as="geometry">
            <mxPoint x="150" y="110" as="sourcePoint" />
            <mxPoint x="230" y="110" as="targetPoint" />
          </mxGeometry>
        </mxCell>
        <mxCell id="H4racg3nBvEyxOAhPjej-288" value="" style="endArrow=classic;html=1;rounded=0;" parent="1" edge="1">
          <mxGeometry width="50" height="50" relative="1" as="geometry">
            <mxPoint x="150" y="150" as="sourcePoint" />
            <mxPoint x="230" y="150" as="targetPoint" />
          </mxGeometry>
        </mxCell>
        <mxCell id="H4racg3nBvEyxOAhPjej-289" value="" style="endArrow=classic;html=1;rounded=0;" parent="1" edge="1">
          <mxGeometry width="50" height="50" relative="1" as="geometry">
            <mxPoint x="150" y="190" as="sourcePoint" />
            <mxPoint x="230" y="190" as="targetPoint" />
          </mxGeometry>
        </mxCell>
        <mxCell id="H4racg3nBvEyxOAhPjej-290" value="S1" style="text;html=1;align=center;verticalAlign=middle;whiteSpace=wrap;rounded=0;" parent="1" vertex="1">
          <mxGeometry x="100" y="-80" width="60" height="30" as="geometry" />
        </mxCell>
        <mxCell id="H4racg3nBvEyxOAhPjej-291" value="S2" style="text;html=1;align=center;verticalAlign=middle;whiteSpace=wrap;rounded=0;" parent="1" vertex="1">
          <mxGeometry x="100" y="-40" width="60" height="30" as="geometry" />
        </mxCell>
        <mxCell id="H4racg3nBvEyxOAhPjej-292" value="S3" style="text;html=1;align=center;verticalAlign=middle;whiteSpace=wrap;rounded=0;" parent="1" vertex="1">
          <mxGeometry x="100" width="60" height="30" as="geometry" />
        </mxCell>
        <mxCell id="H4racg3nBvEyxOAhPjej-293" value="S4" style="text;html=1;align=center;verticalAlign=middle;whiteSpace=wrap;rounded=0;" parent="1" vertex="1">
          <mxGeometry x="100" y="40" width="60" height="30" as="geometry" />
        </mxCell>
        <mxCell id="H4racg3nBvEyxOAhPjej-294" value="S5" style="text;html=1;align=center;verticalAlign=middle;whiteSpace=wrap;rounded=0;" parent="1" vertex="1">
          <mxGeometry x="100" y="80" width="60" height="30" as="geometry" />
        </mxCell>
        <mxCell id="H4racg3nBvEyxOAhPjej-295" value="S6" style="text;html=1;align=center;verticalAlign=middle;whiteSpace=wrap;rounded=0;" parent="1" vertex="1">
          <mxGeometry x="100" y="120" width="60" height="30" as="geometry" />
        </mxCell>
        <mxCell id="H4racg3nBvEyxOAhPjej-296" value="S7" style="text;html=1;align=center;verticalAlign=middle;whiteSpace=wrap;rounded=0;" parent="1" vertex="1">
          <mxGeometry x="100" y="160" width="60" height="30" as="geometry" />
        </mxCell>
        <mxCell id="H4racg3nBvEyxOAhPjej-311" value="SortAcsending7" style="rounded=0;whiteSpace=wrap;html=1;" parent="1" vertex="1">
          <mxGeometry x="880" y="-231.06" width="120" height="311.06" as="geometry" />
        </mxCell>
        <mxCell id="H4racg3nBvEyxOAhPjej-312" value="" style="endArrow=classic;html=1;rounded=0;" parent="1" edge="1">
          <mxGeometry width="50" height="50" relative="1" as="geometry">
            <mxPoint x="800" y="-191.76999999999998" as="sourcePoint" />
            <mxPoint x="880" y="-191.76999999999998" as="targetPoint" />
          </mxGeometry>
        </mxCell>
        <mxCell id="H4racg3nBvEyxOAhPjej-313" value="" style="endArrow=classic;html=1;rounded=0;" parent="1" edge="1">
          <mxGeometry width="50" height="50" relative="1" as="geometry">
            <mxPoint x="800" y="-151.76999999999998" as="sourcePoint" />
            <mxPoint x="880" y="-151.76999999999998" as="targetPoint" />
          </mxGeometry>
        </mxCell>
        <mxCell id="H4racg3nBvEyxOAhPjej-314" value="" style="endArrow=classic;html=1;rounded=0;" parent="1" edge="1">
          <mxGeometry width="50" height="50" relative="1" as="geometry">
            <mxPoint x="800" y="-111.77" as="sourcePoint" />
            <mxPoint x="880" y="-111.77" as="targetPoint" />
          </mxGeometry>
        </mxCell>
        <mxCell id="H4racg3nBvEyxOAhPjej-315" value="" style="endArrow=classic;html=1;rounded=0;" parent="1" edge="1">
          <mxGeometry width="50" height="50" relative="1" as="geometry">
            <mxPoint x="800" y="-71.77" as="sourcePoint" />
            <mxPoint x="880" y="-71.77" as="targetPoint" />
          </mxGeometry>
        </mxCell>
        <mxCell id="H4racg3nBvEyxOAhPjej-316" value="" style="endArrow=classic;html=1;rounded=0;" parent="1" edge="1">
          <mxGeometry width="50" height="50" relative="1" as="geometry">
            <mxPoint x="800" y="-31.769999999999996" as="sourcePoint" />
            <mxPoint x="880" y="-31.769999999999996" as="targetPoint" />
          </mxGeometry>
        </mxCell>
        <mxCell id="H4racg3nBvEyxOAhPjej-317" value="S1" style="text;html=1;align=center;verticalAlign=middle;whiteSpace=wrap;rounded=0;" parent="1" vertex="1">
          <mxGeometry x="750" y="-221.76999999999998" width="60" height="30" as="geometry" />
        </mxCell>
        <mxCell id="H4racg3nBvEyxOAhPjej-318" value="S2" style="text;html=1;align=center;verticalAlign=middle;whiteSpace=wrap;rounded=0;" parent="1" vertex="1">
          <mxGeometry x="750" y="-181.76999999999998" width="60" height="30" as="geometry" />
        </mxCell>
        <mxCell id="H4racg3nBvEyxOAhPjej-319" value="S3" style="text;html=1;align=center;verticalAlign=middle;whiteSpace=wrap;rounded=0;" parent="1" vertex="1">
          <mxGeometry x="750" y="-141.76999999999998" width="60" height="30" as="geometry" />
        </mxCell>
        <mxCell id="H4racg3nBvEyxOAhPjej-320" value="S4" style="text;html=1;align=center;verticalAlign=middle;whiteSpace=wrap;rounded=0;" parent="1" vertex="1">
          <mxGeometry x="750" y="-101.77" width="60" height="30" as="geometry" />
        </mxCell>
        <mxCell id="H4racg3nBvEyxOAhPjej-321" value="S5" style="text;html=1;align=center;verticalAlign=middle;whiteSpace=wrap;rounded=0;" parent="1" vertex="1">
          <mxGeometry x="750" y="-61.769999999999996" width="60" height="30" as="geometry" />
        </mxCell>
        <mxCell id="H4racg3nBvEyxOAhPjej-322" value="SortAcsending7" style="rounded=0;whiteSpace=wrap;html=1;" parent="1" vertex="1">
          <mxGeometry x="1180" y="-96.06" width="120" height="265" as="geometry" />
        </mxCell>
        <mxCell id="H4racg3nBvEyxOAhPjej-323" value="" style="endArrow=classic;html=1;rounded=0;" parent="1" edge="1">
          <mxGeometry width="50" height="50" relative="1" as="geometry">
            <mxPoint x="1060" y="128.94" as="sourcePoint" />
            <mxPoint x="1178" y="128.94" as="targetPoint" />
          </mxGeometry>
        </mxCell>
        <mxCell id="H4racg3nBvEyxOAhPjej-324" value="" style="endArrow=classic;html=1;rounded=0;entryX=-0.001;entryY=0.695;entryDx=0;entryDy=0;entryPerimeter=0;" parent="1" target="H4racg3nBvEyxOAhPjej-322" edge="1">
          <mxGeometry width="50" height="50" relative="1" as="geometry">
            <mxPoint x="1060" y="88.94" as="sourcePoint" />
            <mxPoint x="1100" y="88.94" as="targetPoint" />
          </mxGeometry>
        </mxCell>
        <mxCell id="H4racg3nBvEyxOAhPjej-325" value="S9" style="text;html=1;align=center;verticalAlign=middle;whiteSpace=wrap;rounded=0;" parent="1" vertex="1">
          <mxGeometry x="1000" y="110" width="60" height="30" as="geometry" />
        </mxCell>
        <mxCell id="H4racg3nBvEyxOAhPjej-326" value="S8" style="text;html=1;align=center;verticalAlign=middle;whiteSpace=wrap;rounded=0;" parent="1" vertex="1">
          <mxGeometry x="1000" y="70" width="60" height="30" as="geometry" />
        </mxCell>
        <mxCell id="H4racg3nBvEyxOAhPjej-327" value="" style="endArrow=classic;html=1;rounded=0;entryX=0.006;entryY=0.096;entryDx=0;entryDy=0;entryPerimeter=0;" parent="1" target="H4racg3nBvEyxOAhPjej-322" edge="1">
          <mxGeometry width="50" height="50" relative="1" as="geometry">
            <mxPoint x="1000" y="-71.06" as="sourcePoint" />
            <mxPoint x="1110" y="-61.06" as="targetPoint" />
          </mxGeometry>
        </mxCell>
        <mxCell id="H4racg3nBvEyxOAhPjej-328" value="" style="endArrow=classic;html=1;rounded=0;entryX=0.006;entryY=0.096;entryDx=0;entryDy=0;entryPerimeter=0;" parent="1" edge="1">
          <mxGeometry width="50" height="50" relative="1" as="geometry">
            <mxPoint x="1000" y="-56.2" as="sourcePoint" />
            <mxPoint x="1181" y="-56.2" as="targetPoint" />
          </mxGeometry>
        </mxCell>
        <mxCell id="H4racg3nBvEyxOAhPjej-329" value="" style="endArrow=classic;html=1;rounded=0;entryX=0.006;entryY=0.096;entryDx=0;entryDy=0;entryPerimeter=0;" parent="1" edge="1">
          <mxGeometry width="50" height="50" relative="1" as="geometry">
            <mxPoint x="1000" y="-31.060000000000002" as="sourcePoint" />
            <mxPoint x="1181" y="-31.060000000000002" as="targetPoint" />
          </mxGeometry>
        </mxCell>
        <mxCell id="H4racg3nBvEyxOAhPjej-330" value="SortingNetwork" style="rounded=0;whiteSpace=wrap;html=1;" parent="1" vertex="1">
          <mxGeometry x="1380" y="-263.19" width="100" height="121.42" as="geometry" />
        </mxCell>
        <mxCell id="H4racg3nBvEyxOAhPjej-331" value="" style="endArrow=classic;html=1;rounded=0;exitX=1.004;exitY=0.033;exitDx=0;exitDy=0;exitPerimeter=0;entryX=0.002;entryY=0.35;entryDx=0;entryDy=0;entryPerimeter=0;" parent="1" source="H4racg3nBvEyxOAhPjej-311" target="H4racg3nBvEyxOAhPjej-330" edge="1">
          <mxGeometry width="50" height="50" relative="1" as="geometry">
            <mxPoint x="1080" y="-171.77" as="sourcePoint" />
            <mxPoint x="1130" y="-221.77" as="targetPoint" />
          </mxGeometry>
        </mxCell>
        <mxCell id="H4racg3nBvEyxOAhPjej-332" value="" style="endArrow=classic;html=1;rounded=0;exitX=1;exitY=0.053;exitDx=0;exitDy=0;exitPerimeter=0;entryX=0.015;entryY=0.526;entryDx=0;entryDy=0;entryPerimeter=0;" parent="1" target="H4racg3nBvEyxOAhPjej-330" edge="1">
          <mxGeometry width="50" height="50" relative="1" as="geometry">
            <mxPoint x="1000" y="-200.98" as="sourcePoint" />
            <mxPoint x="1380" y="-203.98" as="targetPoint" />
          </mxGeometry>
        </mxCell>
        <mxCell id="H4racg3nBvEyxOAhPjej-333" value="" style="endArrow=classic;html=1;rounded=0;exitX=1.002;exitY=0.098;exitDx=0;exitDy=0;exitPerimeter=0;" parent="1" source="H4racg3nBvEyxOAhPjej-322" edge="1">
          <mxGeometry width="50" height="50" relative="1" as="geometry">
            <mxPoint x="1330" y="-86.06" as="sourcePoint" />
            <mxPoint x="1379" y="-151.06" as="targetPoint" />
            <Array as="points">
              <mxPoint x="1320" y="-70" />
              <mxPoint x="1360" y="-150" />
            </Array>
          </mxGeometry>
        </mxCell>
        <mxCell id="H4racg3nBvEyxOAhPjej-334" value="" style="endArrow=classic;html=1;rounded=0;exitX=1.003;exitY=0.847;exitDx=0;exitDy=0;exitPerimeter=0;" parent="1" source="H4racg3nBvEyxOAhPjej-322" edge="1">
          <mxGeometry width="50" height="50" relative="1" as="geometry">
            <mxPoint x="1380" y="128.94" as="sourcePoint" />
            <mxPoint x="1900" y="130" as="targetPoint" />
            <Array as="points">
              <mxPoint x="1380" y="128.94" />
            </Array>
          </mxGeometry>
        </mxCell>
        <mxCell id="H4racg3nBvEyxOAhPjej-335" value="" style="endArrow=classic;html=1;rounded=0;exitX=1.003;exitY=0.847;exitDx=0;exitDy=0;exitPerimeter=0;" parent="1" edge="1">
          <mxGeometry width="50" height="50" relative="1" as="geometry">
            <mxPoint x="1300" y="88.94" as="sourcePoint" />
            <mxPoint x="1900" y="90" as="targetPoint" />
            <Array as="points">
              <mxPoint x="1420" y="88.94" />
            </Array>
          </mxGeometry>
        </mxCell>
        <mxCell id="H4racg3nBvEyxOAhPjej-336" value="max" style="text;html=1;align=center;verticalAlign=middle;whiteSpace=wrap;rounded=0;" parent="1" vertex="1">
          <mxGeometry x="1900" y="110" width="60" height="30" as="geometry" />
        </mxCell>
        <mxCell id="H4racg3nBvEyxOAhPjej-337" value="out8" style="text;html=1;align=center;verticalAlign=middle;whiteSpace=wrap;rounded=0;" parent="1" vertex="1">
          <mxGeometry x="1900" y="80" width="60" height="30" as="geometry" />
        </mxCell>
        <mxCell id="H4racg3nBvEyxOAhPjej-338" value="SortingNetwork" style="rounded=0;whiteSpace=wrap;html=1;" parent="1" vertex="1">
          <mxGeometry x="1530" y="-191.76999999999998" width="100" height="121.42" as="geometry" />
        </mxCell>
        <mxCell id="H4racg3nBvEyxOAhPjej-339" value="" style="endArrow=classic;html=1;rounded=0;exitX=1.003;exitY=0.678;exitDx=0;exitDy=0;exitPerimeter=0;entryX=0;entryY=0.088;entryDx=0;entryDy=0;entryPerimeter=0;" parent="1" target="H4racg3nBvEyxOAhPjej-338" edge="1">
          <mxGeometry width="50" height="50" relative="1" as="geometry">
            <mxPoint x="1480.0000000000002" y="-231.0572400000001" as="sourcePoint" />
            <mxPoint x="1529.1000000000001" y="-230.91077999999993" as="targetPoint" />
            <Array as="points">
              <mxPoint x="1500" y="-231.06" />
              <mxPoint x="1510" y="-181.06" />
            </Array>
          </mxGeometry>
        </mxCell>
        <mxCell id="H4racg3nBvEyxOAhPjej-340" value="" style="endArrow=classic;html=1;rounded=0;exitX=1.003;exitY=0.678;exitDx=0;exitDy=0;exitPerimeter=0;entryX=-0.006;entryY=0.091;entryDx=0;entryDy=0;entryPerimeter=0;" parent="1" edge="1">
          <mxGeometry width="50" height="50" relative="1" as="geometry">
            <mxPoint x="1480" y="-151.77" as="sourcePoint" />
            <mxPoint x="1529" y="-151.77" as="targetPoint" />
          </mxGeometry>
        </mxCell>
        <mxCell id="H4racg3nBvEyxOAhPjej-341" value="SortingNetwork" style="rounded=0;whiteSpace=wrap;html=1;" parent="1" vertex="1">
          <mxGeometry x="1700" y="-267.48" width="100" height="121.42" as="geometry" />
        </mxCell>
        <mxCell id="H4racg3nBvEyxOAhPjej-342" value="" style="endArrow=classic;html=1;rounded=0;exitX=0.993;exitY=0.083;exitDx=0;exitDy=0;exitPerimeter=0;entryX=-0.011;entryY=0.123;entryDx=0;entryDy=0;entryPerimeter=0;" parent="1" source="H4racg3nBvEyxOAhPjej-330" target="H4racg3nBvEyxOAhPjej-341" edge="1">
          <mxGeometry width="50" height="50" relative="1" as="geometry">
            <mxPoint x="1540" y="-213.19" as="sourcePoint" />
            <mxPoint x="1648" y="-253.06" as="targetPoint" />
          </mxGeometry>
        </mxCell>
        <mxCell id="H4racg3nBvEyxOAhPjej-343" value="" style="endArrow=classic;html=1;rounded=0;exitX=0.993;exitY=0.083;exitDx=0;exitDy=0;exitPerimeter=0;entryX=0.01;entryY=0.704;entryDx=0;entryDy=0;entryPerimeter=0;" parent="1" target="H4racg3nBvEyxOAhPjej-341" edge="1">
          <mxGeometry width="50" height="50" relative="1" as="geometry">
            <mxPoint x="1630" y="-181.77" as="sourcePoint" />
            <mxPoint x="1810" y="-180.77" as="targetPoint" />
          </mxGeometry>
        </mxCell>
        <mxCell id="H4racg3nBvEyxOAhPjej-344" value="" style="endArrow=classic;html=1;rounded=0;exitX=0.991;exitY=0.586;exitDx=0;exitDy=0;exitPerimeter=0;" parent="1" source="H4racg3nBvEyxOAhPjej-322" edge="1">
          <mxGeometry width="50" height="50" relative="1" as="geometry">
            <mxPoint x="1300" y="48.94" as="sourcePoint" />
            <mxPoint x="1900" y="60" as="targetPoint" />
            <Array as="points">
              <mxPoint x="1460" y="60" />
            </Array>
          </mxGeometry>
        </mxCell>
        <mxCell id="H4racg3nBvEyxOAhPjej-345" value="" style="endArrow=classic;html=1;rounded=0;exitX=1;exitY=0.25;exitDx=0;exitDy=0;entryX=-0.025;entryY=0.832;entryDx=0;entryDy=0;entryPerimeter=0;" parent="1" source="H4racg3nBvEyxOAhPjej-322" target="H4racg3nBvEyxOAhPjej-338" edge="1">
          <mxGeometry width="50" height="50" relative="1" as="geometry">
            <mxPoint x="1300" y="-36.150000000000006" as="sourcePoint" />
            <mxPoint x="1420" y="-57.400000000000006" as="targetPoint" />
            <Array as="points">
              <mxPoint x="1410" y="-31.060000000000002" />
              <mxPoint x="1460" y="-91.06" />
            </Array>
          </mxGeometry>
        </mxCell>
        <mxCell id="H4racg3nBvEyxOAhPjej-346" value="" style="endArrow=classic;html=1;rounded=0;exitX=0.995;exitY=0.912;exitDx=0;exitDy=0;exitPerimeter=0;" parent="1" source="H4racg3nBvEyxOAhPjej-338" edge="1">
          <mxGeometry width="50" height="50" relative="1" as="geometry">
            <mxPoint x="1680" y="-101.06" as="sourcePoint" />
            <mxPoint x="1900" y="-81" as="targetPoint" />
            <Array as="points">
              <mxPoint x="1660" y="-81.06" />
            </Array>
          </mxGeometry>
        </mxCell>
        <mxCell id="H4racg3nBvEyxOAhPjej-347" value="out7" style="text;html=1;align=center;verticalAlign=middle;whiteSpace=wrap;rounded=0;" parent="1" vertex="1">
          <mxGeometry x="1900" y="50" width="60" height="30" as="geometry" />
        </mxCell>
        <mxCell id="H4racg3nBvEyxOAhPjej-348" value="out4" style="text;html=1;align=center;verticalAlign=middle;whiteSpace=wrap;rounded=0;" parent="1" vertex="1">
          <mxGeometry x="1900" y="-101.76999999999998" width="60" height="30" as="geometry" />
        </mxCell>
        <mxCell id="H4racg3nBvEyxOAhPjej-349" value="" style="endArrow=classic;html=1;rounded=0;exitX=0.998;exitY=0.323;exitDx=0;exitDy=0;exitPerimeter=0;entryX=-0.009;entryY=0.952;entryDx=0;entryDy=0;entryPerimeter=0;" parent="1" source="H4racg3nBvEyxOAhPjej-338" target="H4racg3nBvEyxOAhPjej-341" edge="1">
          <mxGeometry width="50" height="50" relative="1" as="geometry">
            <mxPoint x="1630" y="-91.77000000000001" as="sourcePoint" />
            <mxPoint x="1680" y="-141.77" as="targetPoint" />
          </mxGeometry>
        </mxCell>
        <mxCell id="H4racg3nBvEyxOAhPjej-350" value="" style="endArrow=classic;html=1;rounded=0;exitX=1;exitY=0.885;exitDx=0;exitDy=0;exitPerimeter=0;entryX=0;entryY=0.75;entryDx=0;entryDy=0;" parent="1" edge="1" target="H4racg3nBvEyxOAhPjej-355" source="H4racg3nBvEyxOAhPjej-341">
          <mxGeometry width="50" height="50" relative="1" as="geometry">
            <mxPoint x="1770" y="-162.06" as="sourcePoint" />
            <mxPoint x="1900" y="-161.06" as="targetPoint" />
          </mxGeometry>
        </mxCell>
        <mxCell id="H4racg3nBvEyxOAhPjej-351" value="" style="endArrow=classic;html=1;rounded=0;" parent="1" edge="1">
          <mxGeometry width="50" height="50" relative="1" as="geometry">
            <mxPoint x="1800" y="-250" as="sourcePoint" />
            <mxPoint x="1900" y="-250.06" as="targetPoint" />
          </mxGeometry>
        </mxCell>
        <mxCell id="H4racg3nBvEyxOAhPjej-352" value="" style="endArrow=classic;html=1;rounded=0;" parent="1" edge="1">
          <mxGeometry width="50" height="50" relative="1" as="geometry">
            <mxPoint x="1800" y="-210" as="sourcePoint" />
            <mxPoint x="1900" y="-210.06" as="targetPoint" />
          </mxGeometry>
        </mxCell>
        <mxCell id="H4racg3nBvEyxOAhPjej-353" value="min" style="text;html=1;align=center;verticalAlign=middle;whiteSpace=wrap;rounded=0;" parent="1" vertex="1">
          <mxGeometry x="1900" y="-267.48" width="60" height="30" as="geometry" />
        </mxCell>
        <mxCell id="H4racg3nBvEyxOAhPjej-354" value="out2" style="text;html=1;align=center;verticalAlign=middle;whiteSpace=wrap;rounded=0;" parent="1" vertex="1">
          <mxGeometry x="1900" y="-221.77" width="60" height="30" as="geometry" />
        </mxCell>
        <mxCell id="H4racg3nBvEyxOAhPjej-355" value="out3" style="text;html=1;align=center;verticalAlign=middle;whiteSpace=wrap;rounded=0;" parent="1" vertex="1">
          <mxGeometry x="1900" y="-181.76999999999998" width="60" height="30" as="geometry" />
        </mxCell>
        <mxCell id="H4racg3nBvEyxOAhPjej-356" value="" style="endArrow=classic;html=1;rounded=0;exitX=0.998;exitY=0.147;exitDx=0;exitDy=0;exitPerimeter=0;" parent="1" edge="1">
          <mxGeometry width="50" height="50" relative="1" as="geometry">
            <mxPoint x="565" y="490" as="sourcePoint" />
            <mxPoint x="720" y="490" as="targetPoint" />
          </mxGeometry>
        </mxCell>
        <mxCell id="H4racg3nBvEyxOAhPjej-357" value="" style="endArrow=classic;html=1;rounded=0;exitX=0.998;exitY=0.147;exitDx=0;exitDy=0;exitPerimeter=0;" parent="1" edge="1">
          <mxGeometry width="50" height="50" relative="1" as="geometry">
            <mxPoint x="565" y="770" as="sourcePoint" />
            <mxPoint x="720" y="770" as="targetPoint" />
          </mxGeometry>
        </mxCell>
        <mxCell id="H4racg3nBvEyxOAhPjej-358" value="" style="endArrow=classic;html=1;rounded=0;exitX=0.998;exitY=0.147;exitDx=0;exitDy=0;exitPerimeter=0;" parent="1" edge="1">
          <mxGeometry width="50" height="50" relative="1" as="geometry">
            <mxPoint x="565" y="370" as="sourcePoint" />
            <mxPoint x="720" y="370" as="targetPoint" />
          </mxGeometry>
        </mxCell>
        <mxCell id="H4racg3nBvEyxOAhPjej-359" value="......" style="text;html=1;align=center;verticalAlign=middle;whiteSpace=wrap;rounded=0;direction=north;rotation=90;" parent="1" vertex="1">
          <mxGeometry x="620" y="400" width="50" height="60" as="geometry" />
        </mxCell>
        <mxCell id="H4racg3nBvEyxOAhPjej-360" value="......" style="text;html=1;align=center;verticalAlign=middle;whiteSpace=wrap;rounded=0;direction=north;rotation=90;" parent="1" vertex="1">
          <mxGeometry x="610" y="795" width="50" height="60" as="geometry" />
        </mxCell>
        <mxCell id="H4racg3nBvEyxOAhPjej-361" value="SortingNetwork" style="rounded=0;whiteSpace=wrap;html=1;" parent="1" vertex="1">
          <mxGeometry x="800" y="478.58000000000004" width="100" height="121.42" as="geometry" />
        </mxCell>
        <mxCell id="H4racg3nBvEyxOAhPjej-362" value="SortingNetwork" style="rounded=0;whiteSpace=wrap;html=1;" parent="1" vertex="1">
          <mxGeometry x="800" y="734.88" width="100" height="121.42" as="geometry" />
        </mxCell>
        <mxCell id="H4racg3nBvEyxOAhPjej-363" value="" style="endArrow=classic;html=1;rounded=0;entryX=-0.007;entryY=0.096;entryDx=0;entryDy=0;entryPerimeter=0;fillColor=#d5e8d4;strokeColor=#82b366;" parent="1" target="H4racg3nBvEyxOAhPjej-361" edge="1">
          <mxGeometry width="50" height="50" relative="1" as="geometry">
            <mxPoint x="570" y="650" as="sourcePoint" />
            <mxPoint x="690" y="600" as="targetPoint" />
            <Array as="points">
              <mxPoint x="760" y="650" />
              <mxPoint x="780" y="490" />
            </Array>
          </mxGeometry>
        </mxCell>
        <mxCell id="H4racg3nBvEyxOAhPjej-364" value="" style="endArrow=classic;html=1;rounded=0;entryX=0.001;entryY=0.288;entryDx=0;entryDy=0;entryPerimeter=0;fillColor=#d5e8d4;strokeColor=#82b366;" parent="1" target="H4racg3nBvEyxOAhPjej-362" edge="1">
          <mxGeometry width="50" height="50" relative="1" as="geometry">
            <mxPoint x="570" y="680" as="sourcePoint" />
            <mxPoint x="805" y="636.3" as="targetPoint" />
            <Array as="points">
              <mxPoint x="760" y="680" />
              <mxPoint x="780" y="770" />
            </Array>
          </mxGeometry>
        </mxCell>
        <mxCell id="H4racg3nBvEyxOAhPjej-365" value="col3_out3, col4_out2, col5_min" style="text;html=1;align=left;verticalAlign=middle;whiteSpace=wrap;rounded=0;fillColor=#d5e8d4;strokeColor=#82b366;" parent="1" vertex="1">
          <mxGeometry x="680" y="600" width="70" height="40" as="geometry" />
        </mxCell>
        <mxCell id="H4racg3nBvEyxOAhPjej-366" value="col3_max, col4_out8, col5_out7" style="text;html=1;align=left;verticalAlign=middle;whiteSpace=wrap;rounded=0;fillColor=#d5e8d4;strokeColor=#82b366;" parent="1" vertex="1">
          <mxGeometry x="680" y="686.3" width="70" height="40" as="geometry" />
        </mxCell>
        <mxCell id="H4racg3nBvEyxOAhPjej-367" value="" style="endArrow=classic;html=1;rounded=0;exitX=1;exitY=0.75;exitDx=0;exitDy=0;entryX=0;entryY=0.218;entryDx=0;entryDy=0;entryPerimeter=0;" parent="1" source="H4racg3nBvEyxOAhPjej-361" target="H4racg3nBvEyxOAhPjej-277" edge="1">
          <mxGeometry width="50" height="50" relative="1" as="geometry">
            <mxPoint x="1060" y="610" as="sourcePoint" />
            <mxPoint x="1110" y="560" as="targetPoint" />
            <Array as="points">
              <mxPoint x="970" y="610" />
            </Array>
          </mxGeometry>
        </mxCell>
        <mxCell id="H4racg3nBvEyxOAhPjej-368" value="" style="endArrow=classic;html=1;rounded=0;exitX=0.994;exitY=0.293;exitDx=0;exitDy=0;entryX=-0.008;entryY=0.777;entryDx=0;entryDy=0;entryPerimeter=0;exitPerimeter=0;" parent="1" source="H4racg3nBvEyxOAhPjej-362" target="H4racg3nBvEyxOAhPjej-277" edge="1">
          <mxGeometry width="50" height="50" relative="1" as="geometry">
            <mxPoint x="890" y="733.58" as="sourcePoint" />
            <mxPoint x="1180" y="771.58" as="targetPoint" />
            <Array as="points">
              <mxPoint x="970" y="730" />
            </Array>
          </mxGeometry>
        </mxCell>
        <mxCell id="H4racg3nBvEyxOAhPjej-369" value="......" style="text;html=1;align=center;verticalAlign=middle;whiteSpace=wrap;rounded=0;direction=north;rotation=90;" parent="1" vertex="1">
          <mxGeometry x="930" y="626.3" width="50" height="60" as="geometry" />
        </mxCell>
        <mxCell id="H4racg3nBvEyxOAhPjej-370" value="" style="endArrow=classic;html=1;rounded=0;" parent="1" edge="1">
          <mxGeometry width="50" height="50" relative="1" as="geometry">
            <mxPoint x="990" y="670" as="sourcePoint" />
            <mxPoint x="1190" y="669.71" as="targetPoint" />
          </mxGeometry>
        </mxCell>
        <mxCell id="H4racg3nBvEyxOAhPjej-384" value="" style="endArrow=classic;html=1;rounded=0;" parent="1" edge="1">
          <mxGeometry width="50" height="50" relative="1" as="geometry">
            <mxPoint x="150" y="220" as="sourcePoint" />
            <mxPoint x="230" y="220" as="targetPoint" />
          </mxGeometry>
        </mxCell>
        <mxCell id="H4racg3nBvEyxOAhPjej-386" value="" style="endArrow=classic;html=1;rounded=0;" parent="1" edge="1">
          <mxGeometry width="50" height="50" relative="1" as="geometry">
            <mxPoint x="150" y="250" as="sourcePoint" />
            <mxPoint x="230" y="250" as="targetPoint" />
          </mxGeometry>
        </mxCell>
        <mxCell id="H4racg3nBvEyxOAhPjej-387" value="S8" style="text;html=1;align=center;verticalAlign=middle;whiteSpace=wrap;rounded=0;" parent="1" vertex="1">
          <mxGeometry x="100" y="200" width="60" height="30" as="geometry" />
        </mxCell>
        <mxCell id="H4racg3nBvEyxOAhPjej-388" value="S9" style="text;html=1;align=center;verticalAlign=middle;whiteSpace=wrap;rounded=0;" parent="1" vertex="1">
          <mxGeometry x="100" y="230" width="60" height="30" as="geometry" />
        </mxCell>
        <mxCell id="H4racg3nBvEyxOAhPjej-395" value="&lt;b&gt;SortAscending9&lt;/b&gt;" style="text;html=1;align=center;verticalAlign=middle;whiteSpace=wrap;rounded=0;fontSize=18;" parent="1" vertex="1">
          <mxGeometry x="1285" y="-350" width="65" height="31" as="geometry" />
        </mxCell>
        <mxCell id="H4racg3nBvEyxOAhPjej-396" value="" style="endArrow=classic;html=1;rounded=0;" parent="1" edge="1">
          <mxGeometry width="50" height="50" relative="1" as="geometry">
            <mxPoint x="800" y="10.000000000000004" as="sourcePoint" />
            <mxPoint x="880" y="10.000000000000004" as="targetPoint" />
          </mxGeometry>
        </mxCell>
        <mxCell id="H4racg3nBvEyxOAhPjej-397" value="" style="endArrow=classic;html=1;rounded=0;" parent="1" edge="1">
          <mxGeometry width="50" height="50" relative="1" as="geometry">
            <mxPoint x="800" y="50" as="sourcePoint" />
            <mxPoint x="880" y="50" as="targetPoint" />
          </mxGeometry>
        </mxCell>
        <mxCell id="H4racg3nBvEyxOAhPjej-398" value="S6" style="text;html=1;align=center;verticalAlign=middle;whiteSpace=wrap;rounded=0;" parent="1" vertex="1">
          <mxGeometry x="750" y="-19.999999999999996" width="60" height="30" as="geometry" />
        </mxCell>
        <mxCell id="H4racg3nBvEyxOAhPjej-399" value="S7" style="text;html=1;align=center;verticalAlign=middle;whiteSpace=wrap;rounded=0;" parent="1" vertex="1">
          <mxGeometry x="750" y="20.000000000000007" width="60" height="30" as="geometry" />
        </mxCell>
        <mxCell id="H4racg3nBvEyxOAhPjej-400" value="" style="endArrow=classic;html=1;rounded=0;entryX=0.006;entryY=0.096;entryDx=0;entryDy=0;entryPerimeter=0;" parent="1" edge="1">
          <mxGeometry width="50" height="50" relative="1" as="geometry">
            <mxPoint x="1000" y="-1.0000000000000036" as="sourcePoint" />
            <mxPoint x="1181" y="-1.0000000000000036" as="targetPoint" />
          </mxGeometry>
        </mxCell>
        <mxCell id="H4racg3nBvEyxOAhPjej-401" value="" style="endArrow=classic;html=1;rounded=0;entryX=0.006;entryY=0.096;entryDx=0;entryDy=0;entryPerimeter=0;" parent="1" edge="1">
          <mxGeometry width="50" height="50" relative="1" as="geometry">
            <mxPoint x="1000" y="24.709999999999997" as="sourcePoint" />
            <mxPoint x="1181" y="24.709999999999997" as="targetPoint" />
          </mxGeometry>
        </mxCell>
        <mxCell id="H4racg3nBvEyxOAhPjej-402" value="" style="endArrow=classic;html=1;rounded=0;exitX=0.991;exitY=0.586;exitDx=0;exitDy=0;exitPerimeter=0;" parent="1" edge="1">
          <mxGeometry width="50" height="50" relative="1" as="geometry">
            <mxPoint x="1300" y="39" as="sourcePoint" />
            <mxPoint x="1900" y="40" as="targetPoint" />
            <Array as="points">
              <mxPoint x="1500" y="40" />
            </Array>
          </mxGeometry>
        </mxCell>
        <mxCell id="H4racg3nBvEyxOAhPjej-403" value="out6" style="text;html=1;align=center;verticalAlign=middle;whiteSpace=wrap;rounded=0;" parent="1" vertex="1">
          <mxGeometry x="1900" y="20" width="60" height="30" as="geometry" />
        </mxCell>
        <mxCell id="H4racg3nBvEyxOAhPjej-404" value="" style="endArrow=classic;html=1;rounded=0;exitX=0.998;exitY=0.439;exitDx=0;exitDy=0;exitPerimeter=0;" parent="1" source="H4racg3nBvEyxOAhPjej-322" edge="1">
          <mxGeometry width="50" height="50" relative="1" as="geometry">
            <mxPoint x="1340" y="40" as="sourcePoint" />
            <mxPoint x="1900" y="20" as="targetPoint" />
            <Array as="points">
              <mxPoint x="1540" y="20" />
            </Array>
          </mxGeometry>
        </mxCell>
        <mxCell id="H4racg3nBvEyxOAhPjej-405" value="mid" style="text;html=1;align=center;verticalAlign=middle;whiteSpace=wrap;rounded=0;" parent="1" vertex="1">
          <mxGeometry x="1900" y="-10" width="60" height="30" as="geometry" />
        </mxCell>
        <mxCell id="H4racg3nBvEyxOAhPjej-408" value="" style="endArrow=classic;html=1;rounded=0;" parent="1" edge="1">
          <mxGeometry width="50" height="50" relative="1" as="geometry">
            <mxPoint x="50" y="650" as="sourcePoint" />
            <mxPoint x="130" y="650" as="targetPoint" />
          </mxGeometry>
        </mxCell>
        <mxCell id="H4racg3nBvEyxOAhPjej-409" value="S8" style="text;html=1;align=center;verticalAlign=middle;whiteSpace=wrap;rounded=0;" parent="1" vertex="1">
          <mxGeometry y="620" width="60" height="30" as="geometry" />
        </mxCell>
        <mxCell id="H4racg3nBvEyxOAhPjej-413" value="" style="endArrow=classic;html=1;rounded=0;" parent="1" edge="1">
          <mxGeometry width="50" height="50" relative="1" as="geometry">
            <mxPoint x="50" y="690" as="sourcePoint" />
            <mxPoint x="130" y="690" as="targetPoint" />
          </mxGeometry>
        </mxCell>
        <mxCell id="H4racg3nBvEyxOAhPjej-414" value="S9" style="text;html=1;align=center;verticalAlign=middle;whiteSpace=wrap;rounded=0;" parent="1" vertex="1">
          <mxGeometry y="660" width="60" height="30" as="geometry" />
        </mxCell>
        <mxCell id="H4racg3nBvEyxOAhPjej-418" value="SortAscending9(Row 8)" style="rounded=0;whiteSpace=wrap;html=1;" parent="1" vertex="1">
          <mxGeometry x="130" y="766.3" width="130" height="360" as="geometry" />
        </mxCell>
        <mxCell id="H4racg3nBvEyxOAhPjej-419" value="" style="endArrow=classic;html=1;rounded=0;" parent="1" edge="1">
          <mxGeometry width="50" height="50" relative="1" as="geometry">
            <mxPoint x="50" y="786.3" as="sourcePoint" />
            <mxPoint x="130" y="786.3" as="targetPoint" />
          </mxGeometry>
        </mxCell>
        <mxCell id="H4racg3nBvEyxOAhPjej-420" value="" style="endArrow=classic;html=1;rounded=0;" parent="1" edge="1">
          <mxGeometry width="50" height="50" relative="1" as="geometry">
            <mxPoint x="50" y="826.3" as="sourcePoint" />
            <mxPoint x="130" y="826.3" as="targetPoint" />
          </mxGeometry>
        </mxCell>
        <mxCell id="H4racg3nBvEyxOAhPjej-421" value="" style="endArrow=classic;html=1;rounded=0;" parent="1" edge="1">
          <mxGeometry width="50" height="50" relative="1" as="geometry">
            <mxPoint x="50" y="866.3" as="sourcePoint" />
            <mxPoint x="130" y="866.3" as="targetPoint" />
          </mxGeometry>
        </mxCell>
        <mxCell id="H4racg3nBvEyxOAhPjej-422" value="" style="endArrow=classic;html=1;rounded=0;" parent="1" edge="1">
          <mxGeometry width="50" height="50" relative="1" as="geometry">
            <mxPoint x="50" y="906.3" as="sourcePoint" />
            <mxPoint x="130" y="906.3" as="targetPoint" />
          </mxGeometry>
        </mxCell>
        <mxCell id="H4racg3nBvEyxOAhPjej-423" value="" style="endArrow=classic;html=1;rounded=0;" parent="1" edge="1">
          <mxGeometry width="50" height="50" relative="1" as="geometry">
            <mxPoint x="50" y="946.3" as="sourcePoint" />
            <mxPoint x="130" y="946.3" as="targetPoint" />
          </mxGeometry>
        </mxCell>
        <mxCell id="H4racg3nBvEyxOAhPjej-424" value="" style="endArrow=classic;html=1;rounded=0;" parent="1" edge="1">
          <mxGeometry width="50" height="50" relative="1" as="geometry">
            <mxPoint x="50" y="986.3" as="sourcePoint" />
            <mxPoint x="130" y="986.3" as="targetPoint" />
          </mxGeometry>
        </mxCell>
        <mxCell id="H4racg3nBvEyxOAhPjej-425" value="" style="endArrow=classic;html=1;rounded=0;" parent="1" edge="1">
          <mxGeometry width="50" height="50" relative="1" as="geometry">
            <mxPoint x="50" y="1026.3" as="sourcePoint" />
            <mxPoint x="130" y="1026.3" as="targetPoint" />
          </mxGeometry>
        </mxCell>
        <mxCell id="H4racg3nBvEyxOAhPjej-426" value="S73" style="text;html=1;align=center;verticalAlign=middle;whiteSpace=wrap;rounded=0;" parent="1" vertex="1">
          <mxGeometry y="756.3" width="60" height="30" as="geometry" />
        </mxCell>
        <mxCell id="H4racg3nBvEyxOAhPjej-427" value="S74" style="text;html=1;align=center;verticalAlign=middle;whiteSpace=wrap;rounded=0;" parent="1" vertex="1">
          <mxGeometry y="796.3" width="60" height="30" as="geometry" />
        </mxCell>
        <mxCell id="H4racg3nBvEyxOAhPjej-428" value="S75" style="text;html=1;align=center;verticalAlign=middle;whiteSpace=wrap;rounded=0;" parent="1" vertex="1">
          <mxGeometry y="836.3" width="60" height="30" as="geometry" />
        </mxCell>
        <mxCell id="H4racg3nBvEyxOAhPjej-429" value="S76" style="text;html=1;align=center;verticalAlign=middle;whiteSpace=wrap;rounded=0;" parent="1" vertex="1">
          <mxGeometry y="876.3" width="60" height="30" as="geometry" />
        </mxCell>
        <mxCell id="H4racg3nBvEyxOAhPjej-430" value="S77" style="text;html=1;align=center;verticalAlign=middle;whiteSpace=wrap;rounded=0;" parent="1" vertex="1">
          <mxGeometry y="916.3" width="60" height="30" as="geometry" />
        </mxCell>
        <mxCell id="H4racg3nBvEyxOAhPjej-431" value="S78" style="text;html=1;align=center;verticalAlign=middle;whiteSpace=wrap;rounded=0;" parent="1" vertex="1">
          <mxGeometry y="956.3" width="60" height="30" as="geometry" />
        </mxCell>
        <mxCell id="H4racg3nBvEyxOAhPjej-432" value="S9" style="text;html=1;align=center;verticalAlign=middle;whiteSpace=wrap;rounded=0;" parent="1" vertex="1">
          <mxGeometry y="996.3" width="60" height="30" as="geometry" />
        </mxCell>
        <mxCell id="H4racg3nBvEyxOAhPjej-454" value="" style="endArrow=classic;html=1;rounded=0;" parent="1" edge="1">
          <mxGeometry width="50" height="50" relative="1" as="geometry">
            <mxPoint x="50" y="1066.3" as="sourcePoint" />
            <mxPoint x="130" y="1066.3" as="targetPoint" />
          </mxGeometry>
        </mxCell>
        <mxCell id="H4racg3nBvEyxOAhPjej-455" value="S80" style="text;html=1;align=center;verticalAlign=middle;whiteSpace=wrap;rounded=0;" parent="1" vertex="1">
          <mxGeometry y="1036.3" width="60" height="30" as="geometry" />
        </mxCell>
        <mxCell id="H4racg3nBvEyxOAhPjej-459" value="" style="endArrow=classic;html=1;rounded=0;" parent="1" edge="1">
          <mxGeometry width="50" height="50" relative="1" as="geometry">
            <mxPoint x="50" y="1106.3" as="sourcePoint" />
            <mxPoint x="130" y="1106.3" as="targetPoint" />
          </mxGeometry>
        </mxCell>
        <mxCell id="H4racg3nBvEyxOAhPjej-460" value="S81" style="text;html=1;align=center;verticalAlign=middle;whiteSpace=wrap;rounded=0;" parent="1" vertex="1">
          <mxGeometry y="1076.3" width="60" height="30" as="geometry" />
        </mxCell>
        <mxCell id="H4racg3nBvEyxOAhPjej-464" value="" style="endArrow=classic;html=1;rounded=0;" parent="1" edge="1">
          <mxGeometry width="50" height="50" relative="1" as="geometry">
            <mxPoint x="350" y="-50" as="sourcePoint" />
            <mxPoint x="430" y="-50" as="targetPoint" />
          </mxGeometry>
        </mxCell>
        <mxCell id="H4racg3nBvEyxOAhPjej-465" value="" style="endArrow=classic;html=1;rounded=0;" parent="1" edge="1">
          <mxGeometry width="50" height="50" relative="1" as="geometry">
            <mxPoint x="350" y="-10.000000000000002" as="sourcePoint" />
            <mxPoint x="430" y="-10.000000000000002" as="targetPoint" />
          </mxGeometry>
        </mxCell>
        <mxCell id="H4racg3nBvEyxOAhPjej-466" value="" style="endArrow=classic;html=1;rounded=0;" parent="1" edge="1">
          <mxGeometry width="50" height="50" relative="1" as="geometry">
            <mxPoint x="350" y="29.999999999999996" as="sourcePoint" />
            <mxPoint x="430" y="29.999999999999996" as="targetPoint" />
          </mxGeometry>
        </mxCell>
        <mxCell id="H4racg3nBvEyxOAhPjej-467" value="" style="endArrow=classic;html=1;rounded=0;" parent="1" edge="1">
          <mxGeometry width="50" height="50" relative="1" as="geometry">
            <mxPoint x="350" y="70" as="sourcePoint" />
            <mxPoint x="430" y="70" as="targetPoint" />
          </mxGeometry>
        </mxCell>
        <mxCell id="H4racg3nBvEyxOAhPjej-468" value="" style="endArrow=classic;html=1;rounded=0;" parent="1" edge="1">
          <mxGeometry width="50" height="50" relative="1" as="geometry">
            <mxPoint x="350" y="110" as="sourcePoint" />
            <mxPoint x="430" y="110" as="targetPoint" />
          </mxGeometry>
        </mxCell>
        <mxCell id="H4racg3nBvEyxOAhPjej-469" value="" style="endArrow=classic;html=1;rounded=0;" parent="1" edge="1">
          <mxGeometry width="50" height="50" relative="1" as="geometry">
            <mxPoint x="350" y="150" as="sourcePoint" />
            <mxPoint x="430" y="150" as="targetPoint" />
          </mxGeometry>
        </mxCell>
        <mxCell id="H4racg3nBvEyxOAhPjej-470" value="" style="endArrow=classic;html=1;rounded=0;" parent="1" edge="1">
          <mxGeometry width="50" height="50" relative="1" as="geometry">
            <mxPoint x="350" y="190" as="sourcePoint" />
            <mxPoint x="430" y="190" as="targetPoint" />
          </mxGeometry>
        </mxCell>
        <mxCell id="H4racg3nBvEyxOAhPjej-478" value="" style="endArrow=classic;html=1;rounded=0;" parent="1" edge="1">
          <mxGeometry width="50" height="50" relative="1" as="geometry">
            <mxPoint x="350" y="220" as="sourcePoint" />
            <mxPoint x="430" y="220" as="targetPoint" />
          </mxGeometry>
        </mxCell>
        <mxCell id="H4racg3nBvEyxOAhPjej-479" value="" style="endArrow=classic;html=1;rounded=0;" parent="1" edge="1">
          <mxGeometry width="50" height="50" relative="1" as="geometry">
            <mxPoint x="350" y="250" as="sourcePoint" />
            <mxPoint x="430" y="250" as="targetPoint" />
          </mxGeometry>
        </mxCell>
        <mxCell id="H4racg3nBvEyxOAhPjej-482" value="min" style="text;html=1;align=center;verticalAlign=middle;whiteSpace=wrap;rounded=0;" parent="1" vertex="1">
          <mxGeometry x="435" y="-80" width="60" height="30" as="geometry" />
        </mxCell>
        <mxCell id="H4racg3nBvEyxOAhPjej-483" value="out2" style="text;html=1;align=center;verticalAlign=middle;whiteSpace=wrap;rounded=0;" parent="1" vertex="1">
          <mxGeometry x="435" y="-30" width="60" height="30" as="geometry" />
        </mxCell>
        <mxCell id="H4racg3nBvEyxOAhPjej-484" value="out3" style="text;html=1;align=center;verticalAlign=middle;whiteSpace=wrap;rounded=0;" parent="1" vertex="1">
          <mxGeometry x="435" y="10" width="60" height="30" as="geometry" />
        </mxCell>
        <mxCell id="H4racg3nBvEyxOAhPjej-485" value="out4" style="text;html=1;align=center;verticalAlign=middle;whiteSpace=wrap;rounded=0;" parent="1" vertex="1">
          <mxGeometry x="435" y="50" width="60" height="30" as="geometry" />
        </mxCell>
        <mxCell id="H4racg3nBvEyxOAhPjej-486" value="mid" style="text;html=1;align=center;verticalAlign=middle;whiteSpace=wrap;rounded=0;" parent="1" vertex="1">
          <mxGeometry x="435" y="90" width="60" height="30" as="geometry" />
        </mxCell>
        <mxCell id="H4racg3nBvEyxOAhPjej-487" value="out6" style="text;html=1;align=center;verticalAlign=middle;whiteSpace=wrap;rounded=0;" parent="1" vertex="1">
          <mxGeometry x="435" y="130" width="60" height="30" as="geometry" />
        </mxCell>
        <mxCell id="H4racg3nBvEyxOAhPjej-488" value="out7" style="text;html=1;align=center;verticalAlign=middle;whiteSpace=wrap;rounded=0;" parent="1" vertex="1">
          <mxGeometry x="435" y="168.94" width="60" height="30" as="geometry" />
        </mxCell>
        <mxCell id="H4racg3nBvEyxOAhPjej-489" value="out8" style="text;html=1;align=center;verticalAlign=middle;whiteSpace=wrap;rounded=0;" parent="1" vertex="1">
          <mxGeometry x="435" y="200" width="60" height="30" as="geometry" />
        </mxCell>
        <mxCell id="H4racg3nBvEyxOAhPjej-490" value="max" style="text;html=1;align=center;verticalAlign=middle;whiteSpace=wrap;rounded=0;" parent="1" vertex="1">
          <mxGeometry x="435" y="240" width="60" height="30" as="geometry" />
        </mxCell>
        <mxCell id="HKuxVmC4cj7fEWc9r8pq-3" value="" style="group" vertex="1" connectable="0" parent="1">
          <mxGeometry x="1080" y="-290" width="20" height="490" as="geometry" />
        </mxCell>
        <mxCell id="HKuxVmC4cj7fEWc9r8pq-1" value="" style="rounded=0;whiteSpace=wrap;html=1;" vertex="1" parent="HKuxVmC4cj7fEWc9r8pq-3">
          <mxGeometry width="20" height="490" as="geometry" />
        </mxCell>
        <mxCell id="HKuxVmC4cj7fEWc9r8pq-2" value="" style="triangle;whiteSpace=wrap;html=1;rotation=270;" vertex="1" parent="HKuxVmC4cj7fEWc9r8pq-3">
          <mxGeometry x="5" y="480.2249152542373" width="10" height="9.775084745762712" as="geometry" />
        </mxCell>
        <mxCell id="HKuxVmC4cj7fEWc9r8pq-4" value="" style="group" vertex="1" connectable="0" parent="1">
          <mxGeometry x="1330" y="-290" width="20" height="490" as="geometry" />
        </mxCell>
        <mxCell id="HKuxVmC4cj7fEWc9r8pq-5" value="" style="rounded=0;whiteSpace=wrap;html=1;" vertex="1" parent="HKuxVmC4cj7fEWc9r8pq-4">
          <mxGeometry width="20" height="490" as="geometry" />
        </mxCell>
        <mxCell id="HKuxVmC4cj7fEWc9r8pq-6" value="" style="triangle;whiteSpace=wrap;html=1;rotation=270;" vertex="1" parent="HKuxVmC4cj7fEWc9r8pq-4">
          <mxGeometry x="5" y="480.2249152542373" width="10" height="9.775084745762712" as="geometry" />
        </mxCell>
        <mxCell id="HKuxVmC4cj7fEWc9r8pq-7" value="" style="group" vertex="1" connectable="0" parent="1">
          <mxGeometry x="1490" y="-290" width="20" height="490" as="geometry" />
        </mxCell>
        <mxCell id="HKuxVmC4cj7fEWc9r8pq-8" value="" style="rounded=0;whiteSpace=wrap;html=1;" vertex="1" parent="HKuxVmC4cj7fEWc9r8pq-7">
          <mxGeometry width="20" height="490" as="geometry" />
        </mxCell>
        <mxCell id="HKuxVmC4cj7fEWc9r8pq-9" value="" style="triangle;whiteSpace=wrap;html=1;rotation=270;" vertex="1" parent="HKuxVmC4cj7fEWc9r8pq-7">
          <mxGeometry x="5" y="480.2249152542373" width="10" height="9.775084745762712" as="geometry" />
        </mxCell>
        <mxCell id="HKuxVmC4cj7fEWc9r8pq-10" value="" style="group" vertex="1" connectable="0" parent="1">
          <mxGeometry x="1650" y="-290" width="20" height="490" as="geometry" />
        </mxCell>
        <mxCell id="HKuxVmC4cj7fEWc9r8pq-11" value="" style="rounded=0;whiteSpace=wrap;html=1;" vertex="1" parent="HKuxVmC4cj7fEWc9r8pq-10">
          <mxGeometry width="20" height="490" as="geometry" />
        </mxCell>
        <mxCell id="HKuxVmC4cj7fEWc9r8pq-12" value="" style="triangle;whiteSpace=wrap;html=1;rotation=270;" vertex="1" parent="HKuxVmC4cj7fEWc9r8pq-10">
          <mxGeometry x="5" y="480.2249152542373" width="10" height="9.775084745762712" as="geometry" />
        </mxCell>
        <mxCell id="HKuxVmC4cj7fEWc9r8pq-13" value="" style="group" vertex="1" connectable="0" parent="1">
          <mxGeometry x="80" y="650" width="20" height="490" as="geometry" />
        </mxCell>
        <mxCell id="HKuxVmC4cj7fEWc9r8pq-14" value="" style="rounded=0;whiteSpace=wrap;html=1;" vertex="1" parent="HKuxVmC4cj7fEWc9r8pq-13">
          <mxGeometry y="-310" width="20" height="800" as="geometry" />
        </mxCell>
        <mxCell id="HKuxVmC4cj7fEWc9r8pq-15" value="" style="triangle;whiteSpace=wrap;html=1;rotation=270;" vertex="1" parent="HKuxVmC4cj7fEWc9r8pq-13">
          <mxGeometry x="5" y="480.2249152542373" width="10" height="9.775084745762712" as="geometry" />
        </mxCell>
        <mxCell id="HKuxVmC4cj7fEWc9r8pq-16" value="" style="group" vertex="1" connectable="0" parent="1">
          <mxGeometry x="1070" y="460" width="20" height="490" as="geometry" />
        </mxCell>
        <mxCell id="HKuxVmC4cj7fEWc9r8pq-17" value="" style="rounded=0;whiteSpace=wrap;html=1;" vertex="1" parent="HKuxVmC4cj7fEWc9r8pq-16">
          <mxGeometry width="20" height="490" as="geometry" />
        </mxCell>
        <mxCell id="HKuxVmC4cj7fEWc9r8pq-18" value="" style="triangle;whiteSpace=wrap;html=1;rotation=270;" vertex="1" parent="HKuxVmC4cj7fEWc9r8pq-16">
          <mxGeometry x="5" y="480.2249152542373" width="10" height="9.775084745762712" as="geometry" />
        </mxCell>
        <mxCell id="HKuxVmC4cj7fEWc9r8pq-19" value="" style="group" vertex="1" connectable="0" parent="1">
          <mxGeometry x="1450" y="460" width="20" height="490" as="geometry" />
        </mxCell>
        <mxCell id="HKuxVmC4cj7fEWc9r8pq-20" value="" style="rounded=0;whiteSpace=wrap;html=1;" vertex="1" parent="HKuxVmC4cj7fEWc9r8pq-19">
          <mxGeometry width="20" height="490" as="geometry" />
        </mxCell>
        <mxCell id="HKuxVmC4cj7fEWc9r8pq-21" value="" style="triangle;whiteSpace=wrap;html=1;rotation=270;" vertex="1" parent="HKuxVmC4cj7fEWc9r8pq-19">
          <mxGeometry x="5" y="480.2249152542373" width="10" height="9.775084745762712" as="geometry" />
        </mxCell>
      </root>
    </mxGraphModel>
  </diagram>
</mxfile>
